<svg width="56" height="56" viewBox="0 0 56 56" fill="none" xmlns="http://www.w3.org/2000/svg">
<rect width="56" height="56" rx="16" fill="#1E2235"/>
<path d="M13.8881 33.1016C13.6081 33.1016 13.368 33.0031 13.168 32.8061C12.9679 32.6091 12.8694 32.3691 12.8725 32.0859C12.8694 31.8089 12.9679 31.572 13.168 31.375C13.368 31.178 13.6081 31.0795 13.8881 31.0795C14.159 31.0795 14.3944 31.178 14.5945 31.375C14.7976 31.572 14.9007 31.8089 14.9038 32.0859C14.9007 32.2737 14.8514 32.4445 14.756 32.5984C14.6637 32.7522 14.5406 32.8754 14.3867 32.9677C14.2359 33.0569 14.0697 33.1016 13.8881 33.1016ZM24.4726 23.5455V33H22.9491L18.4942 26.56H18.4157V33H16.703V23.5455H18.2357L22.686 29.9901H22.7691V23.5455H24.4726ZM26.3388 33V23.5455H32.4879V24.9812H28.0515V27.5479H32.1694V28.9837H28.0515V31.5643H32.5249V33H26.3388ZM33.8198 24.9812V23.5455H41.3631V24.9812H38.4409V33H36.742V24.9812H33.8198Z" fill="white"/>
</svg>
